<svg width="211" height="38" viewBox="0 0 211 38" fill="none" xmlns="http://www.w3.org/2000/svg">
<g clip-path="url(#clip0_315_2120)">
<path d="M94.9723 15.1628H98.399V18.1208H95.0828V28.1232H91.1919V18.1208H89.1285V15.1628H91.1919V14.5712C91.1919 13.063 91.6451 11.8615 92.5478 10.9778C93.4505 10.094 94.7217 9.64486 96.3614 9.64486C96.9183 9.64215 97.4736 9.70466 98.0157 9.8311C98.4787 9.9298 98.9203 10.1091 99.3201 10.3606L98.3032 13.1433C97.8421 12.8288 97.2931 12.6653 96.7335 12.6759C95.5593 12.6759 94.9723 13.3162 94.9723 14.5968V15.1628Z" fill="black"/>
<path d="M101.218 12.4056C101.006 12.2101 100.837 11.9736 100.722 11.7106C100.606 11.4477 100.547 11.164 100.547 10.8773C100.547 10.5906 100.606 10.3069 100.722 10.044C100.837 9.78105 101.006 9.54448 101.218 9.34902C101.697 8.92875 102.321 8.70884 102.96 8.73551C103.595 8.70896 104.216 8.92019 104.7 9.32711C104.912 9.50714 105.083 9.73126 105.199 9.98366C105.314 10.236 105.373 10.5106 105.37 10.7878C105.379 11.0847 105.323 11.3799 105.208 11.6538C105.092 11.9277 104.919 12.1741 104.7 12.3764C104.226 12.8051 103.601 13.0309 102.96 13.0045C102.323 13.0352 101.699 12.8206 101.218 12.4056Z" fill="black"/>
<path d="M104.895 14.8669H101.019V28.1195H104.895V14.8669Z" fill="black"/>
<path d="M121.468 9.84204V28.1232H117.784V26.5967C116.823 27.7482 115.432 28.3228 113.609 28.3204C112.415 28.3378 111.237 28.0484 110.19 27.4804C109.175 26.9294 108.342 26.1002 107.791 25.0921C107.219 23.9777 106.922 22.7452 106.922 21.4951C106.922 20.2449 107.219 19.0125 107.791 17.898C108.343 16.8906 109.176 16.0617 110.19 15.5097C111.238 14.9446 112.416 14.6566 113.609 14.6734C115.316 14.6734 116.65 15.2066 117.61 16.2729V9.84204H121.468ZM116.678 24.1682C117.305 23.4158 117.647 22.4706 117.647 21.4951C117.647 20.5195 117.305 19.5743 116.678 18.8219C116.026 18.183 115.147 17.8246 114.23 17.8246C113.313 17.8246 112.433 18.183 111.781 18.8219C111.155 19.5743 110.812 20.5195 110.812 21.4951C110.812 22.4706 111.155 23.4158 111.781 24.1682C112.433 24.8071 113.313 25.1655 114.23 25.1655C115.147 25.1655 116.026 24.8071 116.678 24.1682Z" fill="black"/>
<path d="M137.419 22.5796H127.301C127.463 23.3691 127.927 24.0662 128.594 24.5261C129.341 25.0269 130.228 25.2825 131.129 25.2564C131.757 25.2668 132.382 25.1616 132.971 24.946C133.533 24.7256 134.045 24.3952 134.475 23.9746L136.538 26.1913C135.278 27.6204 133.436 28.3349 131.011 28.3349C129.626 28.3621 128.254 28.0616 127.01 27.4585C125.899 26.9226 124.968 26.0807 124.327 25.0337C123.689 23.9685 123.361 22.7485 123.38 21.5096C123.365 20.2777 123.687 19.0647 124.313 18.0002C124.928 16.9665 125.821 16.1221 126.892 15.5608C128.004 14.9935 129.235 14.6946 130.486 14.6882C131.736 14.6819 132.97 14.9683 134.088 15.5243C135.137 16.0704 136.004 16.9047 136.586 17.9272C137.211 19.0427 137.524 20.3035 137.493 21.579C137.493 21.5936 137.47 21.9369 137.419 22.5796ZM128.347 18.3179C127.735 18.8288 127.34 19.5502 127.242 20.3374H133.83C133.726 19.5552 133.332 18.8393 132.725 18.3289C132.112 17.8233 131.333 17.5571 130.536 17.5803C129.741 17.5596 128.965 17.8213 128.347 18.3179Z" fill="black"/>
<path d="M139.423 9.84204H143.303V28.1232H139.423V9.84204Z" fill="black"/>
<path d="M145.798 12.4056C145.586 12.2101 145.417 11.9736 145.302 11.7106C145.186 11.4477 145.127 11.164 145.127 10.8773C145.127 10.5906 145.186 10.3069 145.302 10.044C145.417 9.78104 145.586 9.54447 145.798 9.34901C146.275 8.92863 146.899 8.70864 147.537 8.7355C148.171 8.70823 148.792 8.91955 149.276 9.3271C149.489 9.50664 149.66 9.73067 149.776 9.98318C149.892 10.2357 149.95 10.5104 149.946 10.7878C149.956 11.0847 149.901 11.3802 149.785 11.6542C149.669 11.9282 149.496 12.1745 149.276 12.3764C148.803 12.8055 148.177 13.0313 147.537 13.0045C146.901 13.0354 146.277 12.8207 145.798 12.4056ZM145.599 14.8669H149.475V28.1231H145.599V14.8669Z" fill="black"/>
<path d="M165.392 9.84204V28.1232H161.708V26.5967C160.745 27.7482 159.353 28.3228 157.533 28.3204C156.339 28.3378 155.161 28.0484 154.114 27.4804C153.099 26.9294 152.266 26.1002 151.715 25.0921C151.144 23.9777 150.846 22.7452 150.846 21.4951C150.846 20.2449 151.144 19.0125 151.715 17.898C152.267 16.8906 153.1 16.0617 154.114 15.5097C155.162 14.9446 156.34 14.6566 157.533 14.6734C159.24 14.6734 160.574 15.2066 161.535 16.2729V9.84204H165.392ZM160.602 24.1682C161.229 23.4158 161.572 22.4706 161.572 21.4951C161.572 20.5195 161.229 19.5743 160.602 18.8219C159.95 18.183 159.071 17.8246 158.154 17.8246C157.237 17.8246 156.357 18.183 155.705 18.8219C155.079 19.5743 154.736 20.5195 154.736 21.4951C154.736 22.4706 155.079 23.4158 155.705 24.1682C156.357 24.8071 157.237 25.1655 158.154 25.1655C159.071 25.1655 159.95 24.8071 160.602 24.1682Z" fill="black"/>
<path d="M177.832 16.1378C178.939 17.1117 179.494 18.5858 179.497 20.5602V28.1232H175.868V26.4725C175.131 27.7044 173.771 28.3204 171.789 28.3204C170.871 28.3427 169.959 28.1657 169.117 27.8018C168.415 27.5007 167.815 27.0049 167.389 26.3739C166.988 25.7573 166.781 25.0368 166.792 24.3033C166.768 23.7398 166.884 23.179 167.128 22.6698C167.373 22.1606 167.74 21.7185 168.196 21.3819C169.132 20.6758 170.579 20.3228 172.537 20.3228H175.617C175.64 19.9646 175.582 19.6058 175.449 19.2719C175.316 18.9381 175.11 18.6373 174.847 18.391C174.334 17.9382 173.564 17.7118 172.537 17.7118C171.823 17.7109 171.114 17.8231 170.437 18.0441C169.803 18.238 169.209 18.5422 168.683 18.9424L167.29 16.2583C168.09 15.7184 168.977 15.3182 169.913 15.0751C170.937 14.7971 171.995 14.657 173.056 14.6588C175.131 14.6734 176.719 15.1591 177.832 16.1378ZM174.515 25.2674C175.034 24.9651 175.427 24.4883 175.621 23.9236V22.5687H172.96C171.374 22.5687 170.579 23.0861 170.577 24.1207C170.568 24.3481 170.617 24.5741 170.718 24.7781C170.82 24.9821 170.971 25.1578 171.159 25.2893C171.631 25.6023 172.194 25.7547 172.761 25.7239C173.379 25.7376 173.988 25.5836 174.523 25.2784L174.515 25.2674Z" fill="black"/>
<path d="M195.462 9.84204V28.1232H191.778V26.5967C190.817 27.7482 189.426 28.3228 187.603 28.3204C186.409 28.3378 185.231 28.0484 184.184 27.4804C183.169 26.9294 182.336 26.1002 181.785 25.0921C181.214 23.9777 180.916 22.7452 180.916 21.4951C180.916 20.2449 181.214 19.0125 181.785 17.898C182.337 16.8906 183.17 16.0617 184.184 15.5097C185.232 14.9446 186.41 14.6566 187.603 14.6734C189.308 14.6734 190.642 15.2066 191.605 16.2729V9.84204H195.462ZM190.691 24.1682C191.317 23.4158 191.66 22.4706 191.66 21.4951C191.66 20.5195 191.317 19.5743 190.691 18.8219C190.039 18.183 189.159 17.8246 188.242 17.8246C187.326 17.8246 186.446 18.183 185.794 18.8219C185.167 19.5743 184.825 20.5195 184.825 21.4951C184.825 22.4706 185.167 23.4158 185.794 24.1682C186.446 24.8071 187.326 25.1655 188.242 25.1655C189.159 25.1655 190.039 24.8071 190.691 24.1682Z" fill="black"/>
<path d="M210.757 22.5796H200.643C200.802 23.3694 201.265 24.0672 201.932 24.5261C202.68 25.0275 203.569 25.283 204.471 25.2564C205.099 25.267 205.724 25.1617 206.313 24.946C206.875 24.7256 207.387 24.3952 207.817 23.9746L209.88 26.1913C208.62 27.6204 206.778 28.3349 204.353 28.3349C202.967 28.3625 201.594 28.0621 200.348 27.4585C199.239 26.9205 198.308 26.0791 197.666 25.0337C197.027 23.9685 196.699 22.7485 196.719 21.5096C196.703 20.2777 197.025 19.0647 197.651 18.0002C198.267 16.9665 199.16 16.1221 200.23 15.5608C201.342 14.9935 202.573 14.6946 203.824 14.6882C205.074 14.6819 206.309 14.9683 207.426 15.5243C208.475 16.0704 209.342 16.9047 209.924 17.9272C210.552 19.0417 210.867 20.3029 210.834 21.579C210.834 21.5936 210.816 21.9369 210.757 22.5796ZM201.686 18.3179C201.073 18.8288 200.678 19.5502 200.58 20.3374H207.168C207.064 19.5552 206.67 18.8393 206.063 18.3289C205.45 17.8233 204.672 17.5571 203.874 17.5803C203.079 17.5596 202.303 17.8213 201.686 18.3179Z" fill="black"/>
<path d="M7.79462 27.7799H4.11002V14.0197H0.215393V10.4847H7.79462V27.7799Z" fill="black"/>
<path d="M9.82855 25.1724L15.4402 19.7458C17.2825 17.9673 18.1594 17.1895 18.1594 15.8383C18.1594 14.677 17.113 13.8115 15.7902 13.8115C14.0695 13.8115 13.1705 15.0751 13.27 16.9265H9.55221C9.37903 12.9716 12.0725 10.251 15.8676 10.251C19.4085 10.251 21.9546 12.5516 21.9546 15.7287C21.9546 18.1024 20.3554 19.9576 18.0599 22.061L15.8492 24.2521H21.984V27.7798H9.82486L9.82855 25.1724Z" fill="black"/>
<path d="M30.1896 13.9942H23.3031V10.4847H35.4033V12.884L31.2618 17.1128C33.7563 17.3575 35.5544 19.4098 35.5544 22.083C35.5544 25.5668 32.8573 28.0428 29.1174 28.0428C25.6502 28.0428 23.0304 25.8152 22.8057 22.6746H26.4903C26.6892 23.6387 27.5956 24.4822 29.11 24.4822C30.6244 24.4822 31.7556 23.4415 31.7556 21.9844C31.7556 19.9065 29.3569 19.1871 26.8403 19.9065V17.5547L30.1896 13.9942Z" fill="black"/>
<path d="M62.5404 37.2308C72.6907 37.2308 80.9192 29.0755 80.9192 19.0154C80.9192 8.95535 72.6907 0.800049 62.5404 0.800049C52.3901 0.800049 44.1616 8.95535 44.1616 19.0154C44.1616 29.0755 52.3901 37.2308 62.5404 37.2308Z" fill="#FFB727"/>
<path d="M49.6296 19.0154C49.6296 19.1559 49.6859 19.2906 49.7861 19.3899C49.8863 19.4892 50.0222 19.545 50.1639 19.545C50.3055 19.545 50.4415 19.4892 50.5416 19.3899C50.6418 19.2906 50.6981 19.1559 50.6981 19.0154V18.9643C50.7086 16.364 51.5925 13.8413 53.2103 11.7942C54.8281 9.74706 57.0876 8.29219 59.6323 7.65916C62.177 7.02613 64.8619 7.251 67.2633 8.29828C69.6647 9.34555 71.6459 11.1556 72.8941 13.4427L70.8234 12.9461C70.7757 12.9314 70.726 12.924 70.676 12.9242C70.5468 12.9245 70.4221 12.971 70.3246 13.055C70.2271 13.139 70.1634 13.255 70.1451 13.3817C70.1267 13.5084 70.155 13.6375 70.2248 13.7452C70.2945 13.853 70.4011 13.9323 70.525 13.9686H70.5655L73.7748 14.7391C73.8139 14.7447 73.8536 14.7447 73.8927 14.7391C74.0035 14.74 74.1115 14.7047 74.2001 14.6387C74.2886 14.5727 74.3528 14.4797 74.3827 14.374L75.4107 11.3137C75.4372 11.2513 75.451 11.1843 75.4513 11.1165C75.4516 10.9903 75.4067 10.8681 75.3246 10.7716C75.2425 10.6751 75.1285 10.6106 75.003 10.5896C74.8774 10.5685 74.7484 10.5923 74.6389 10.6567C74.5293 10.7211 74.4464 10.8219 74.4048 10.9412L73.7748 12.811C72.3857 10.3514 70.2153 8.41581 67.6012 7.30554C64.9872 6.19527 62.0762 5.97256 59.3212 6.67206C56.5661 7.37156 54.1217 8.95404 52.3682 11.1732C50.6148 13.3924 49.6507 16.1238 49.6259 18.9424C49.6259 18.9424 49.6259 18.9424 49.6259 18.9424C49.6259 18.9424 49.6259 18.9643 49.6259 18.9753L49.6296 19.0154ZM68.8816 17.1895C68.7921 16.9034 68.6223 16.6484 68.392 16.4543C68.1616 16.2603 67.8803 16.1353 67.581 16.094L65.0754 15.7288L63.9701 13.4939C63.8362 13.2277 63.6301 13.0038 63.375 12.8473C63.1198 12.6908 62.8257 12.6079 62.5257 12.6079C62.2256 12.6079 61.9315 12.6908 61.6764 12.8473C61.4212 13.0038 61.2152 13.2277 61.0813 13.4939L59.9759 15.7288L57.4704 16.094C57.1712 16.1358 56.8901 16.2609 56.6598 16.4549C56.4296 16.6488 56.2596 16.9036 56.1697 17.1895C56.0746 17.4715 56.0625 17.7744 56.135 18.0629C56.2074 18.3514 56.3614 18.6134 56.5788 18.8183L58.3879 20.5565L57.9605 23.0106C57.9111 23.3036 57.9452 23.6044 58.059 23.8792C58.1727 24.154 58.3616 24.3919 58.6044 24.5661C58.8472 24.7403 59.1342 24.8439 59.4331 24.8652C59.7321 24.8865 60.0311 24.8247 60.2965 24.6868L62.5404 23.5255L64.7843 24.6868C65.0502 24.8249 65.3497 24.8868 65.6491 24.8655C65.9485 24.8442 66.236 24.7406 66.4793 24.5662C66.7209 24.3911 66.9088 24.153 67.022 23.8783C67.1352 23.6037 67.1692 23.3033 67.1204 23.0106L66.693 20.5565L68.5021 18.8183C68.7141 18.61 68.8622 18.3465 68.9294 18.0582C68.9965 17.77 68.98 17.4688 68.8816 17.1895ZM67.7283 18.055L65.5176 20.184L66.0408 23.1932C66.059 23.2888 66.0489 23.3877 66.0116 23.4778C65.9743 23.5678 65.9115 23.6453 65.8308 23.7008C65.7496 23.7597 65.6533 23.7948 65.5529 23.8019C65.4525 23.809 65.3521 23.7879 65.2633 23.7409L62.522 22.3277L59.7843 23.7409C59.6949 23.7878 59.5939 23.8089 59.493 23.8018C59.392 23.7947 59.2951 23.7597 59.2132 23.7008C59.1328 23.6448 59.0701 23.5675 59.0323 23.4776C58.9944 23.3878 58.9831 23.2891 58.9995 23.1932L59.5264 20.184L57.3157 18.055C57.2454 17.9861 57.1958 17.8992 57.1727 17.8039C57.1496 17.7087 57.1538 17.6089 57.1849 17.5159C57.2159 17.4229 57.2725 17.3403 57.3483 17.2775C57.4242 17.2146 57.5163 17.1741 57.6141 17.1603L60.6797 16.7221L62.0504 13.9905C62.0947 13.9012 62.1635 13.8259 62.2488 13.7733C62.3341 13.7206 62.4326 13.6927 62.5331 13.6927C62.6335 13.6927 62.732 13.7206 62.8173 13.7733C62.9026 13.8259 62.9714 13.9012 63.0157 13.9905L64.3864 16.7221L67.452 17.1603C67.5499 17.1741 67.6419 17.2146 67.7178 17.2775C67.7936 17.3403 67.8502 17.4229 67.8813 17.5159C67.9123 17.6089 67.9165 17.7087 67.8934 17.8039C67.8703 17.8992 67.8207 17.9861 67.7504 18.055H67.7283ZM75.466 19.0154C75.466 18.875 75.4097 18.7403 75.3095 18.641C75.2093 18.5417 75.0734 18.4859 74.9317 18.4859C74.79 18.4859 74.6541 18.5417 74.5539 18.641C74.4538 18.7403 74.3975 18.875 74.3975 19.0154V19.0666C74.387 21.6668 73.5031 24.1896 71.8853 26.2367C70.2675 28.2838 68.008 29.7387 65.4633 30.3717C62.9186 31.0048 60.2337 30.7799 57.8323 29.7326C55.4308 28.6853 53.4497 26.8753 52.2014 24.5882L54.2722 25.0848C54.3212 25.0995 54.3721 25.1069 54.4232 25.1067C54.5521 25.1055 54.6763 25.0585 54.7731 24.9742C54.8699 24.8899 54.933 24.7739 54.9509 24.6474C54.9687 24.5209 54.9401 24.3923 54.8704 24.2849C54.8006 24.1775 54.6942 24.0985 54.5706 24.0623H54.5301L51.3208 23.2918C51.2817 23.2862 51.242 23.2862 51.2029 23.2918C51.0921 23.2909 50.9841 23.3262 50.8955 23.3922C50.807 23.4582 50.7428 23.5512 50.7129 23.6569L49.6849 26.7172C49.6584 26.7796 49.6446 26.8466 49.6443 26.9144C49.644 27.0406 49.6889 27.1628 49.771 27.2593C49.8531 27.3558 49.9671 27.4203 50.0926 27.4413C50.2182 27.4624 50.3472 27.4386 50.4567 27.3742C50.5663 27.3098 50.6492 27.209 50.6907 27.0897L51.3208 25.2199C52.7099 27.6795 54.8803 29.6151 57.4943 30.7254C60.1084 31.8356 63.0194 32.0583 65.7744 31.3588C68.5294 30.6593 70.9739 29.0769 72.7273 26.8577C74.4808 24.6385 75.4449 21.9071 75.4697 19.0885V19.0154H75.466Z" fill="black"/>
</g>
<defs>
<clipPath id="clip0_315_2120">
<rect width="210.615" height="36.4308" fill="white" transform="translate(0.215393 0.800049)"/>
</clipPath>
</defs>
</svg>
